<?xml version="1.0" encoding="utf-8"?>
<!-- Generator: Adobe Illustrator 17.1.0, SVG Export Plug-In . SVG Version: 6.00 Build 0)  -->
<!DOCTYPE svg PUBLIC "-//W3C//DTD SVG 1.1//EN" "http://www.w3.org/Graphics/SVG/1.1/DTD/svg11.dtd">
<svg version="1.1" id="Слой_1" xmlns="http://www.w3.org/2000/svg" xmlns:xlink="http://www.w3.org/1999/xlink" x="0px" y="0px"
	 viewBox="0 0 149 21" enable-background="new 0 0 149 21" xml:space="preserve">
<path fill="#3C5185" d="M22.6,20c10.3,0,18.6-4.3,18.6-9.5c0-5.3-8.3-9.5-18.6-9.5C12.3,1,4,5.2,4,10.5C4,15.8,12.3,20,22.6,20
	L22.6,20z M26.1,15.4c-0.3,0.7-0.8,2.3-2.1,2.9c-0.4,0.2-0.8,0.3-1.2,0.3c-0.1,0-0.2,0-0.2,0c-3.4,0-6.6-0.5-9.3-1.3
	c0,0-0.1,0-0.1,0c-0.2-0.1-0.4-0.2-0.4-0.3c0-0.1,0.1-0.2,0.2-0.3c0,0,0.1-0.1,0.2-0.1c0.6-0.5,2.5-1.9,6-3.2
	c1.2-0.5,2.8-1.1,4.4-1.4C24.5,11.6,28,11.1,26.1,15.4L26.1,15.4z M35.5,5.7c0.1-0.1,0.2-0.2,0.3-0.2c0.1,0,0.2,0,0.4,0.1
	c2.2,1.3,3.5,3,3.5,4.9c0,3.3-4.2,6.1-10.3,7.4c-0.4,0.1-0.6,0.1-0.7,0c-0.1-0.1-0.1-0.2,0-0.3c0-0.1,0.1-0.1,0.2-0.2
	c3.3-3.9,5.8-9.6,6.5-11.3C35.4,5.9,35.5,5.8,35.5,5.7L35.5,5.7z M19.2,5.6c0.3-0.7,0.8-2.3,2.1-2.9c0.4-0.2,0.8-0.3,1.2-0.3
	c0.1,0,0.2,0,0.2,0c3.4,0,6.6,0.5,9.3,1.3c0,0,0.1,0,0.1,0c0.2,0.1,0.4,0.2,0.4,0.3c0,0.1-0.1,0.2-0.2,0.3c0,0-0.1,0.1-0.2,0.1
	c-0.6,0.5-2.5,1.9-6,3.2c-1.2,0.5-2.8,1.1-4.4,1.4C20.8,9.4,17.3,9.9,19.2,5.6L19.2,5.6z M15.8,3.1c0.4-0.1,0.6-0.1,0.7,0
	c0.1,0.1,0.1,0.2,0,0.3c0,0.1-0.1,0.1-0.2,0.2c-3.3,3.9-5.8,9.6-6.5,11.3c-0.1,0.1-0.1,0.2-0.1,0.3c-0.1,0.1-0.2,0.2-0.3,0.2
	c-0.1,0-0.2,0-0.4-0.1c-2.2-1.3-3.5-3-3.5-4.9C5.5,7.2,9.7,4.4,15.8,3.1"/>
<polyline fill="#3C5185" points="57.8,3.7 57.8,8.9 51.9,8.9 51.9,3.7 48.7,3.7 48.7,17.3 51.9,17.3 51.9,11.8 57.8,11.8 57.8,17.3 
	61,17.3 61,3.7 57.8,3.7 "/>
<polyline fill="#3C5185" points="72.9,3.7 69.5,9.1 66.1,3.7 62.3,3.7 67.9,12.6 67.9,17.3 71.2,17.3 71.2,12.6 76.8,3.7 72.9,3.7 
	"/>
<path fill="#3C5185" d="M87.2,3.7v10c0,0.4-0.3,0.7-0.7,0.7h-5.2V3.7h-3.2v13.6h9.6c0.9,0,1.5-0.3,2-0.8c0.5-0.5,0.8-1.2,0.8-2V3.7
	H87.2"/>
<path fill="#3C5185" d="M103,3.7h-9.6v13.6h3.2V6.6h5.2c0.4,0,0.7,0.3,0.7,0.7v10h3.2V6.5c0-0.9-0.3-1.5-0.7-2
	C104.6,3.9,103.9,3.7,103,3.7"/>
<path fill="#3C5185" d="M118.4,3.7h-9.6v13.6h9.6c0.9,0,1.5-0.3,2-0.8c0.5-0.5,0.8-1.2,0.8-2V6.5c0-0.9-0.3-1.5-0.8-2
	C119.9,3.9,119.2,3.7,118.4,3.7L118.4,3.7z M117.9,7.3v6.3c0,0.4-0.3,0.7-0.7,0.7h-5.2V6.6h5.2C117.7,6.6,117.9,6.9,117.9,7.3"/>
<path fill="#3C5185" d="M126.8,3.7c-0.9,0-1.5,0.3-2,0.8c-0.5,0.5-0.8,1.2-0.8,2v10.8h3.2v-4.2h5.9v4.2h3.2V3.7H126.8L126.8,3.7z
	 M133.2,6.6v3.5h-5.9V7.3c0-0.3,0.3-0.7,0.7-0.7H133.2"/>
<polyline fill="#3C5185" points="142.7,3.7 139.6,3.7 139.6,17.3 142.8,17.3 142.8,3.7 142.7,3.7 "/>
</svg>
